<svg width="36" height="37" viewBox="0 0 36 37" fill="none" xmlns="http://www.w3.org/2000/svg">
<circle cx="18" cy="18.0625" r="18" fill="#91D24E"/>
<path d="M15.7601 30.0627H11.9958C11.7986 30.0627 11.6326 29.9119 11.6077 29.7093L11.5226 29.0241C11.4977 28.8086 11.3898 28.6125 11.23 28.4746L8.57593 26.24C8.06544 25.8112 7.73549 25.197 7.65041 24.5247L6.73527 17.2951C6.69999 17.0343 6.77262 16.7779 6.94071 16.5753C7.1337 16.3361 7.42214 16.2155 7.72304 16.2499C8.03016 16.2844 8.28956 16.5021 8.43482 16.7843L9.78782 19.4133C9.73801 19.4629 9.68613 19.5189 9.64048 19.5728C9.11132 20.1934 9.06566 21.1114 9.5056 21.8031L9.56785 21.9044C10.1634 22.8396 10.8316 23.7166 11.5724 24.5312L12.1535 25.169C12.2448 25.2724 12.3735 25.3328 12.5083 25.3349C12.6432 25.3371 12.7719 25.2897 12.8736 25.1905C12.9711 25.0936 13.0271 24.9621 13.0334 24.8221C13.0375 24.6777 12.9856 24.5441 12.8922 24.4428L12.1846 23.6606C11.5455 22.9538 10.9665 22.1909 10.4539 21.3786L10.373 21.2493C10.1862 20.954 10.2028 20.4778 10.4415 20.2257C10.5764 20.0835 10.7548 19.9973 10.9478 19.9887C11.1595 19.9779 11.3546 20.0533 11.5019 20.1977L14.8201 23.3567C15.1853 23.7037 15.4302 24.1691 15.5111 24.6755L16.1461 29.5994C16.1772 29.8429 15.9946 30.0606 15.758 30.0606L15.7601 30.0627Z" fill="white"/>
<path d="M28.7165 17.2942L27.8014 24.526C27.7163 25.2026 27.3822 25.8167 26.8738 26.2434L24.2217 28.4737C24.062 28.6116 23.9541 28.8077 23.9291 29.0232L23.8441 29.7085C23.8192 29.911 23.6532 30.0619 23.456 30.0619H19.6896C19.453 30.0619 19.2704 29.8442 19.3016 29.6007L19.9407 24.6768C20.0216 24.1704 20.2686 23.7028 20.6338 23.358L23.9499 20.199C24.1014 20.0546 24.2964 19.9792 24.504 19.9899C24.726 20.0007 24.9273 20.1106 25.0684 20.2916C25.2801 20.5653 25.2697 20.9596 25.0809 21.2505L24.9045 21.5221C24.3898 22.315 23.815 23.0606 23.1821 23.7567L22.5595 24.4419C22.4682 24.5432 22.4184 24.6768 22.4205 24.8212C22.4267 24.9612 22.4828 25.0927 22.5803 25.1897C22.6799 25.2888 22.8106 25.3362 22.9455 25.334C23.0804 25.3297 23.2091 25.2715 23.3004 25.1681L23.8814 24.5303C24.6202 23.7179 25.2904 22.8387 25.886 21.9035L25.9483 21.8022C26.3882 21.1105 26.3405 20.1925 25.8134 19.5719C25.7657 19.5159 25.7159 19.4598 25.666 19.4124L27.0398 16.7339C27.1996 16.4279 27.5275 16.2318 27.8616 16.2447C28.1168 16.2555 28.3492 16.3719 28.5132 16.5744C28.6792 16.777 28.7518 17.0313 28.7186 17.2942H28.7165Z" fill="white"/>
<path d="M25.2481 8.08343C24.7646 7.67791 24.0342 7.73118 23.6177 8.20194L20.0944 12.0658C19.8018 12.3974 19.3753 12.5877 18.9252 12.5877H16.5254C16.0764 12.5877 15.6499 12.3974 15.3562 12.0658L11.8329 8.20194C11.4163 7.73118 10.686 7.67682 10.2024 8.08343C9.71779 8.48896 9.66307 9.19999 10.0796 9.67074L13.7034 13.6716C14.2673 14.2946 14.5789 15.0959 14.5789 15.9254V19.2598C14.5789 19.8817 15.0971 20.3851 15.7347 20.3851H19.7147C20.3535 20.3851 20.8706 19.8806 20.8706 19.2598V15.9254C20.8706 15.0959 21.1821 14.2935 21.7461 13.6716L25.3699 9.67074C25.7864 9.19999 25.7317 8.48896 25.247 8.08343H25.2481Z" fill="#DDF1C3"/>
<path d="M17.7265 6.0625C16.1721 6.0625 14.9102 7.28995 14.9102 8.80441C14.9102 10.3189 16.1721 11.5463 17.7265 11.5463C19.281 11.5463 20.5429 10.3189 20.5429 8.80441C20.5429 7.28995 19.2821 6.0625 17.7265 6.0625Z" fill="#DDF1C3"/>
</svg>
