<svg width="36" height="37" viewBox="0 0 36 37" fill="none" xmlns="http://www.w3.org/2000/svg">
<circle cx="18" cy="18.0625" r="18" fill="#FF9F0F"/>
<g clip-path="url(#clip0_948_14140)">
<path d="M16.8187 19.8449C16.6953 19.0059 16.6213 18.1421 16.5966 17.2786H14.8445C14.7459 16.7357 14.5484 16.2422 14.277 15.7733H16.6212C16.6458 14.9095 16.7199 14.046 16.8433 13.207C15.8315 12.9109 14.8939 12.5161 14.1042 11.9978C13.5859 12.7133 13.1912 13.5031 12.9444 14.3669C12.5249 14.0708 12.056 13.8734 11.5625 13.7499C12.7469 10.0484 16.2017 7.33398 20.2981 7.33398C25.3075 7.3586 29.4285 11.4796 29.4285 16.5384C29.4285 21.5972 25.3075 25.7182 20.2487 25.7182C18.8175 25.7182 17.4602 25.3973 16.2511 24.8052L16.1525 23.9662C16.1031 23.5713 16.0045 23.2013 15.8564 22.831C16.498 23.2751 17.1889 23.6453 17.954 23.8674C17.584 23.1519 17.2877 22.2881 17.0657 21.3257C16.4734 21.4985 15.9305 21.7206 15.437 21.992C15.1655 21.5479 14.8201 21.1777 14.4005 20.8568C15.1407 20.4373 15.9549 20.0919 16.8186 19.845L16.8187 19.8449ZM20.2488 8.86372C19.7799 8.86372 19.0149 9.97413 18.546 12.0717C19.0889 12.1458 19.6812 12.1952 20.2488 12.1952C20.841 12.1952 21.4086 12.1458 21.9515 12.0717C21.4826 9.97413 20.7177 8.86372 20.2488 8.86372ZM26.4426 12.0223C25.6283 12.5406 24.6905 12.9353 23.7035 13.2315C23.8269 14.0459 23.9009 14.9343 23.9009 15.7978H27.8987C27.7507 14.3914 27.2324 13.1081 26.4426 12.0223L26.4426 12.0223ZM27.8987 17.2785H23.9257C23.9011 18.1423 23.8271 19.0058 23.7283 19.8448C24.7401 20.1409 25.6777 20.5357 26.4674 21.054C27.2323 19.9682 27.7506 18.6849 27.8987 17.2784L27.8987 17.2785ZM25.431 22.1892C24.8387 21.8191 24.1478 21.5476 23.4322 21.3254C23.2102 22.2878 22.9139 23.1515 22.5685 23.8671C23.6295 23.5218 24.6166 22.9295 25.431 22.1892ZM23.4322 11.7509C24.1726 11.5289 24.8389 11.2326 25.431 10.8871C24.6167 10.1222 23.6297 9.55467 22.5438 9.2092C22.9139 9.92473 23.21 10.7885 23.4322 11.7509ZM20.2489 24.2127C20.7178 24.2127 21.4827 23.1022 21.9516 21.0046C21.3841 20.9306 20.8164 20.8812 20.2489 20.8812C19.6566 20.8812 19.089 20.9306 18.5461 21.0046C19.0396 23.1022 19.78 24.2127 20.2489 24.2127ZM18.2747 19.5241C18.9162 19.4254 19.5825 19.376 20.2489 19.376C20.9152 19.376 21.5813 19.4254 22.223 19.5241C22.3217 18.8578 22.3711 18.0928 22.3959 17.2784H18.0774C18.1267 18.093 18.176 18.8579 18.2747 19.5241ZM22.4204 15.7733C22.3958 14.959 22.3218 14.2187 22.2476 13.5277C21.6061 13.6263 20.9398 13.6757 20.2734 13.6757C19.6071 13.6757 18.941 13.6263 18.2993 13.5277C18.2006 14.2187 18.1512 14.959 18.1018 15.7733H22.4204ZM17.954 9.20933C16.8681 9.55479 15.8812 10.1223 15.0668 10.8873C15.6591 11.2327 16.35 11.5288 17.0656 11.751C17.3122 10.7886 17.6084 9.92491 17.9539 9.20933H17.954Z" fill="white"/>
<path d="M7.54084 18.0926C7.54084 19.7142 8.85558 21.029 10.4774 21.029C12.0991 21.029 13.4138 19.7142 13.4138 18.0926C13.4138 16.4707 12.0991 15.156 10.4774 15.156C8.85558 15.156 7.54084 16.4707 7.54084 18.0926Z" fill="#FFE4BC"/>
<path d="M6.2827 24.1151C6.40612 23.0541 7.04763 22.1904 7.96063 21.7215C8.67616 22.215 9.53994 22.5112 10.4777 22.5112C11.4155 22.5112 12.2791 22.2152 12.9948 21.7215C13.8831 22.1904 14.5247 23.054 14.6727 24.1151L14.9443 26.4596C14.9937 26.9037 14.6975 27.3233 14.278 27.422C13.0688 27.6688 11.8103 27.792 10.4779 27.792C9.14542 27.792 7.88678 27.6686 6.67775 27.422C6.23366 27.3233 5.9374 26.9037 6.01143 26.4596L6.2827 24.1151Z" fill="#FFE4BC"/>
</g>
<defs>
<clipPath id="clip0_948_14140">
<rect width="24" height="24" fill="white" transform="matrix(-1 0 0 1 29.7261 5.5625)"/>
</clipPath>
</defs>
</svg>
