<svg width="36" height="37" viewBox="0 0 36 37" fill="none" xmlns="http://www.w3.org/2000/svg">
<circle cx="18" cy="18.0625" r="18" fill="#58B9FB"/>
<path d="M26.6915 26.1148C26.8898 26.7986 27.2791 27.7057 28.0513 28.5917C28.3156 28.9011 28.0706 29.4048 27.6813 29.3257C25.9975 28.9653 24.2484 27.965 23.1328 27.2311C22.8427 27.2601 22.5452 27.2742 22.2414 27.2742C19.4291 27.2742 16.9804 26.0506 15.7061 24.2294C21.067 24.0563 25.4768 20.7012 26.2949 16.3539C28.3608 17.4051 29.7278 19.2474 29.7278 21.3429C29.7278 23.2942 28.5333 25.0363 26.6915 26.1157V26.1148Z" fill="#C7EAFE"/>
<path d="M24.7812 14.8869C24.7812 10.7154 20.5157 7.33398 15.2539 7.33398C9.99209 7.33398 5.72656 10.7154 5.72656 14.8869C5.72656 17.3762 7.24594 19.5841 9.58827 20.9597C9.3392 21.8343 8.8443 22.991 7.86336 24.1152C7.51999 24.509 7.83756 25.1497 8.32602 25.046C10.4693 24.5907 12.6971 23.318 14.119 22.3871C14.4906 22.4223 14.8694 22.4408 15.2531 22.4408C20.5149 22.4408 24.7812 19.0585 24.7812 14.8869Z" fill="white"/>
</svg>
