<svg width="36" height="37" viewBox="0 0 36 37" fill="none" xmlns="http://www.w3.org/2000/svg">
<path d="M36 18.0625C36 28.0036 27.9411 36.0625 18 36.0625C8.05887 36.0625 0 28.0036 0 18.0625C0 8.12137 8.05887 0.0625 18 0.0625C27.9411 0.0625 36 8.12137 36 18.0625Z" fill="#FF7716"/>
<g clip-path="url(#clip0_948_14126)">
<path d="M26.0661 24.0428H28.9748C29.3893 24.0428 29.7266 24.3996 29.7266 24.8383V27.9161C29.7266 28.3548 29.3893 28.7116 28.9748 28.7116H26.0661C25.6516 28.7116 25.3143 28.3548 25.3143 27.9161V24.8383C25.3143 24.3996 25.6516 24.0428 26.0661 24.0428Z" fill="#FFC5BB"/>
<path d="M20.6772 24.0428H23.5859C24.0004 24.0428 24.3377 24.3996 24.3377 24.8383V27.9161C24.3377 28.3548 24.0004 28.7116 23.5859 28.7116H20.6772C20.2627 28.7116 19.9254 28.3548 19.9254 27.9161V24.8383C19.9254 24.3996 20.2627 24.0428 20.6772 24.0428Z" fill="#FFC5BB"/>
<path d="M23.3716 18.3369H26.2804C26.6949 18.3369 27.0321 18.6937 27.0321 19.1323V22.2102C27.0321 22.6488 26.6949 23.0057 26.2804 23.0057H23.3716C22.9571 23.0057 22.6199 22.6488 22.6199 22.2102V19.1323C22.6199 18.6937 22.9571 18.3369 23.3716 18.3369Z" fill="#FFC5BB"/>
</g>
<path fill-rule="evenodd" clip-rule="evenodd" d="M21.9153 13.7939C20.0589 15.1483 17.4992 14.6889 16.1906 12.7677C14.8819 10.8464 15.3258 8.19731 17.1821 6.84291C19.0385 5.48851 21.5982 5.94793 22.9126 7.86915C24.2155 9.79037 23.7716 12.4395 21.921 13.7879L21.9153 13.7939ZM22.5373 22.0274H22.5316L19.7932 21.7887C19.5799 21.7529 19.3666 21.6753 19.1763 21.5381L16.68 19.8138C15.9825 20.4283 14.7718 21.4188 13.8148 22.1944L17.0605 25.6371C17.3275 25.9216 17.5001 26.2646 17.5792 26.6245C17.7404 26.8933 17.8332 27.2079 17.8332 27.5442C17.8332 28.5328 17.0318 29.3342 16.0432 29.3342H7.51651C6.52794 29.3342 5.72655 28.5328 5.72655 27.5442C5.72655 27.4734 5.73066 27.4035 5.73867 27.3348C5.73059 27.2594 5.72644 27.1827 5.72644 27.1049C5.72644 25.9593 6.62002 25.0285 7.72691 25.0285H10.817L9.19124 23.2923C7.20806 22.0453 7.74421 19.2708 9.30078 18.4176C10.2059 17.5823 13.7053 14.3604 13.8609 14.2649C14.7372 13.716 15.8729 13.6623 16.8299 14.2232C17.6659 14.7184 18.2366 15.8222 18.1905 17.0095L20.6176 18.6861L23.0389 18.877C23.8806 19.0202 24.4513 19.8317 24.3188 20.7028C24.1804 21.5739 23.3906 22.1706 22.5489 22.0274H22.5373Z" fill="white"/>
<defs>
<clipPath id="clip0_948_14126">
<rect width="22.5882" height="23.3776" fill="white" transform="translate(7.13831 5.33398)"/>
</clipPath>
</defs>
</svg>
