<svg width="36" height="37" viewBox="0 0 36 37" fill="none" xmlns="http://www.w3.org/2000/svg">
<circle cx="18" cy="18.0625" r="18" fill="#C163E2"/>
<path d="M16.8024 26.3089L16.8027 26.3087C17.1254 26.1221 17.4905 25.8952 17.8883 25.6401C19.0168 24.9134 20.1418 24.1124 21.1803 23.2061C24.2588 20.5177 25.9766 17.7024 25.9766 14.8337C25.9766 12.2442 23.7618 10.084 20.9516 10.084C19.2773 10.084 17.7315 10.889 16.7861 12.106L16.2063 12.8523L15.6112 12.1182C14.6261 10.903 13.0636 10.084 11.5016 10.084C8.69132 10.084 6.47656 12.2442 6.47656 14.8337C6.47656 17.7024 8.19432 20.5177 11.2728 23.2061C12.3113 24.1124 13.4363 24.9134 14.5648 25.6401C14.9626 25.8952 15.3277 26.1221 15.6504 26.3087L15.6508 26.3089C15.7794 26.3833 15.8623 26.4333 15.9223 26.4695C15.9796 26.504 16.016 26.5259 16.0513 26.5445L16.0527 26.5452C16.1502 26.5969 16.303 26.5969 16.4005 26.5452L16.4018 26.5445C16.4372 26.5259 16.4735 26.504 16.5308 26.4695C16.5908 26.4333 16.6737 26.3833 16.8024 26.3089Z" stroke="#EBCBF7" stroke-width="1.5"/>
<path d="M28.0908 25.5403L28.091 25.5401C30.4051 23.6541 31.9766 21.4597 31.9766 19.0004C31.9766 16.4803 29.7084 14.584 27.1016 14.584C25.8142 14.584 24.5992 15.0511 23.6951 15.8216C22.7904 15.0667 21.59 14.584 20.3516 14.584C17.7447 14.584 15.4766 16.4803 15.4766 19.0004C15.4766 21.4597 17.0481 23.6541 19.3621 25.5401L19.3623 25.5403C20.1666 26.1954 21.0252 26.7644 21.8636 27.2682L21.8648 27.2689C22.1562 27.4434 22.4357 27.6058 22.6907 27.7434M28.0908 25.5403L23.3516 27.25L23.0205 27.923C23.0203 27.9228 23.02 27.9227 23.0198 27.9226C22.9694 27.8978 22.913 27.8663 22.8682 27.8413L22.866 27.8401L22.8497 27.831C22.8027 27.8048 22.7515 27.7762 22.6907 27.7434M28.0908 25.5403C27.2865 26.1954 26.4279 26.7644 25.5895 27.2682L25.5884 27.2689C25.297 27.4433 25.0176 27.6056 24.7627 27.7432L28.0908 25.5403ZM22.6907 27.7434L23.0467 27.0837L22.6904 27.7432C22.6905 27.7433 22.6906 27.7433 22.6907 27.7434Z" fill="white" stroke="#C163E2" stroke-width="1.5"/>
</svg>
