<svg width="16" height="17" viewBox="0 0 16 17" fill="none" xmlns="http://www.w3.org/2000/svg">
<g clip-path="url(#clip0_886_5260)">
<path d="M3.13906 13.0658C3.31123 12.5778 3.63051 12.1553 4.0529 11.8564C4.47528 11.5576 4.97997 11.3971 5.4974 11.3971C6.01482 11.3971 6.51951 11.5576 6.9419 11.8564C7.36428 12.1553 7.68356 12.5778 7.85573 13.0658H15.4974C15.9576 13.0658 16.3307 13.4389 16.3307 13.8991C16.3307 14.3594 15.9576 14.7324 15.4974 14.7324H7.85573C7.68356 15.2204 7.36428 15.6429 6.9419 15.9418C6.51951 16.2407 6.01482 16.4012 5.4974 16.4012C4.97997 16.4012 4.47528 16.2407 4.0529 15.9418C3.63051 15.6429 3.31123 15.2204 3.13906 14.7324H0.497396C0.0371589 14.7324 -0.335938 14.3594 -0.335938 13.8991C-0.335938 13.4389 0.0371585 13.0658 0.497396 13.0658H3.13906ZM8.13906 7.23245C8.31123 6.74451 8.63051 6.32198 9.0529 6.02311C9.47528 5.72424 9.97997 5.56374 10.4974 5.56374C11.0148 5.56374 11.5195 5.72424 11.9419 6.02311C12.3643 6.32198 12.6836 6.74451 12.8557 7.23245H15.4974C15.9576 7.23245 16.3307 7.60555 16.3307 8.06578C16.3307 8.52602 15.9576 8.89912 15.4974 8.89912H12.8557C12.6836 9.38706 12.3643 9.80959 11.9419 10.1085C11.5195 10.4073 11.0148 10.5678 10.4974 10.5678C9.97997 10.5678 9.47528 10.4073 9.0529 10.1085C8.63051 9.80959 8.31123 9.38706 8.13906 8.89912H0.497396C0.0371585 8.89912 -0.335938 8.52602 -0.335938 8.06578C-0.335938 7.60555 0.0371586 7.23245 0.497396 7.23245H8.13906ZM3.13906 1.39912C3.31123 0.911172 3.63051 0.488645 4.0529 0.189774C4.47528 -0.109096 4.97997 -0.269592 5.4974 -0.269592C6.01482 -0.269592 6.51951 -0.109096 6.9419 0.189774C7.36428 0.488645 7.68356 0.911172 7.85573 1.39912H15.4974C15.9576 1.39912 16.3307 1.77221 16.3307 2.23245C16.3307 2.69269 15.9576 3.06578 15.4974 3.06578H7.85573C7.68356 3.55373 7.36428 3.97625 6.9419 4.27513C6.51951 4.574 6.01482 4.73449 5.4974 4.73449C4.97997 4.73449 4.47528 4.574 4.0529 4.27513C3.63051 3.97625 3.31123 3.55373 3.13906 3.06578H0.497396C0.0371589 3.06578 -0.335938 2.69269 -0.335938 2.23245C-0.335938 1.77221 0.0371585 1.39912 0.497396 1.39912H3.13906ZM5.4974 3.06578C5.71841 3.06578 5.93037 2.97799 6.08665 2.82171C6.24293 2.66542 6.33073 2.45346 6.33073 2.23245C6.33073 2.01144 6.24293 1.79947 6.08665 1.64319C5.93037 1.48691 5.71841 1.39912 5.4974 1.39912C5.27638 1.39912 5.06442 1.48691 4.90814 1.64319C4.75186 1.79947 4.66406 2.01144 4.66406 2.23245C4.66406 2.45346 4.75186 2.66542 4.90814 2.82171C5.06442 2.97799 5.27638 3.06578 5.4974 3.06578ZM10.4974 8.89912C10.7184 8.89912 10.9304 8.81132 11.0867 8.65504C11.2429 8.49876 11.3307 8.2868 11.3307 8.06578C11.3307 7.84477 11.2429 7.63281 11.0867 7.47653C10.9304 7.32025 10.7184 7.23245 10.4974 7.23245C10.2764 7.23245 10.0644 7.32025 9.90814 7.47653C9.75186 7.63281 9.66406 7.84477 9.66406 8.06578C9.66406 8.2868 9.75186 8.49876 9.90814 8.65504C10.0644 8.81132 10.2764 8.89912 10.4974 8.89912ZM5.4974 14.7324C5.71841 14.7324 5.93037 14.6447 6.08665 14.4884C6.24293 14.3321 6.33073 14.1201 6.33073 13.8991C6.33073 13.6781 6.24293 13.4661 6.08665 13.3099C5.93037 13.1536 5.71841 13.0658 5.4974 13.0658C5.27638 13.0658 5.06442 13.1536 4.90814 13.3099C4.75186 13.4661 4.66406 13.6781 4.66406 13.8991C4.66406 14.1201 4.75186 14.3321 4.90814 14.4884C5.06442 14.6447 5.27638 14.7324 5.4974 14.7324Z" fill="#311C7E"/>
</g>
<defs>
<clipPath id="clip0_886_5260">
<rect width="20" height="20" fill="white" transform="translate(-2.00244 -1.93384)"/>
</clipPath>
</defs>
</svg>
