<svg width="17" height="17" viewBox="0 0 17 17" fill="none" xmlns="http://www.w3.org/2000/svg">
<path fill-rule="evenodd" clip-rule="evenodd" d="M4.21161 5.224C4.03483 5.224 3.86528 5.29423 3.74028 5.41923C3.61527 5.54424 3.54505 5.71378 3.54505 5.89057V13.2228C3.54505 13.3996 3.61527 13.5691 3.74028 13.6941C3.86528 13.8191 4.03483 13.8894 4.21161 13.8894H11.5438C11.7206 13.8894 11.8902 13.8191 12.0152 13.6941C12.1402 13.5691 12.2104 13.3996 12.2104 13.2228V9.2234C12.2104 8.85526 12.5088 8.55683 12.877 8.55683C13.2451 8.55683 13.5435 8.85526 13.5435 9.2234V13.2228C13.5435 13.7531 13.3329 14.2618 12.9578 14.6368C12.5828 15.0118 12.0742 15.2225 11.5438 15.2225H4.21161C3.68126 15.2225 3.17263 15.0118 2.79761 14.6368C2.4226 14.2618 2.21191 13.7531 2.21191 13.2228V5.89057C2.21191 5.36021 2.4226 4.85158 2.79761 4.47657C3.17263 4.10155 3.68126 3.89087 4.21161 3.89087H8.21101C8.57914 3.89087 8.87757 4.1893 8.87757 4.55744C8.87757 4.92557 8.57914 5.224 8.21101 5.224H4.21161Z" fill="white"/>
<path fill-rule="evenodd" clip-rule="evenodd" d="M10.2109 2.55768C10.2109 2.18954 10.5094 1.89111 10.8775 1.89111H14.8769C15.245 1.89111 15.5435 2.18954 15.5435 2.55768V6.55707C15.5435 6.92521 15.245 7.22364 14.8769 7.22364C14.5088 7.22364 14.2103 6.92521 14.2103 6.55707V3.22425H10.8775C10.5094 3.22425 10.2109 2.92581 10.2109 2.55768Z" fill="white"/>
<path fill-rule="evenodd" clip-rule="evenodd" d="M15.3481 2.08635C15.6084 2.34666 15.6084 2.7687 15.3481 3.02901L8.01583 10.3612C7.75552 10.6215 7.33347 10.6215 7.07316 10.3612C6.81285 10.1009 6.81285 9.67888 7.07316 9.41857L14.4054 2.08635C14.6657 1.82604 15.0877 1.82604 15.3481 2.08635Z" fill="white"/>
</svg>
