<svg width="26" height="26" viewBox="0 0 26 26" fill="none" xmlns="http://www.w3.org/2000/svg">
<path d="M20.4806 21.3176L3.46582 4.30286" stroke="#707174" stroke-width="1.54679" stroke-miterlimit="10" stroke-linecap="round"/>
<path d="M12.1337 5.21356C11.9408 5.10948 11.7222 5.06248 11.5035 5.07805C11.2848 5.09363 11.0751 5.17114 10.8988 5.30153L10.8669 5.32618L9.48851 6.45474C9.44669 6.48895 9.4125 6.53155 9.38816 6.57978C9.36381 6.62802 9.34984 6.68082 9.34716 6.73478C9.34447 6.78875 9.35312 6.84267 9.37256 6.89309C9.39199 6.9435 9.42178 6.98928 9.45999 7.02748L12.0859 9.65338C12.14 9.70752 12.2089 9.7444 12.2839 9.75934C12.359 9.77428 12.4368 9.76663 12.5075 9.73734C12.5782 9.70805 12.6386 9.65844 12.6811 9.5948C12.7235 9.53116 12.7462 9.45634 12.7461 9.37982V6.26286C12.7483 6.04897 12.6925 5.83848 12.5847 5.65373C12.4769 5.46899 12.321 5.31688 12.1337 5.21356Z" fill="#707174"/>
<path d="M12.5208 16.6422L5.04589 9.16921C4.90092 9.02415 4.70428 8.9426 4.49919 8.9425H3.07904C2.77137 8.9425 2.47629 9.06473 2.25873 9.28229C2.04117 9.49985 1.91895 9.79492 1.91895 10.1026V15.5164C1.91895 15.8241 2.04117 16.1191 2.25873 16.3367C2.47629 16.5542 2.77137 16.6765 3.07904 16.6765H6.45106L10.8981 20.3168C11.0766 20.4492 11.2895 20.5274 11.5113 20.5419C11.7331 20.5564 11.9544 20.5066 12.1486 20.3984C12.332 20.2939 12.4842 20.1421 12.5893 19.959C12.6945 19.7759 12.7487 19.5679 12.7465 19.3568V17.1884C12.7465 16.9836 12.6654 16.7872 12.5208 16.6422Z" fill="#707174"/>
<path d="M17.3868 12.8095C17.3868 11.6225 17.106 10.4958 16.5289 9.36487C16.4831 9.27371 16.4198 9.19251 16.3425 9.12593C16.2653 9.05936 16.1756 9.00872 16.0787 8.97695C15.9817 8.94518 15.8795 8.9329 15.7778 8.94081C15.6761 8.94872 15.577 8.97666 15.4861 9.02304C15.3953 9.06942 15.3145 9.13331 15.2485 9.21103C15.1824 9.28876 15.1324 9.37878 15.1013 9.47592C15.0702 9.57305 15.0586 9.67539 15.0672 9.77702C15.0758 9.87865 15.1044 9.97758 15.1514 10.0681C15.6149 10.9758 15.8402 11.8728 15.8402 12.8095C15.8402 12.9384 15.8352 13.0694 15.8252 13.2025C15.8211 13.2579 15.8289 13.3136 15.8483 13.3657C15.8676 13.4179 15.898 13.4652 15.9373 13.5045L16.6314 14.1986C16.6815 14.2488 16.7445 14.2843 16.8134 14.3011C16.8824 14.318 16.9547 14.3155 17.0223 14.294C17.0899 14.2724 17.1503 14.2327 17.1969 14.1792C17.2435 14.1256 17.2744 14.0603 17.2863 13.9903C17.3528 13.6002 17.3865 13.2052 17.3868 12.8095Z" fill="#707174"/>
<path d="M20.4798 12.8095C20.4798 10.3359 19.8476 8.7549 18.8278 7.00672C18.723 6.83243 18.5539 6.7064 18.3569 6.65592C18.1599 6.60544 17.951 6.63458 17.7753 6.73702C17.5997 6.83947 17.4714 7.00697 17.4184 7.20327C17.3653 7.39956 17.3917 7.60886 17.4919 7.78584C18.4049 9.35084 18.9331 10.6747 18.9331 12.8095C18.9331 13.9613 18.7741 14.882 18.4803 15.7409C18.4566 15.8093 18.4527 15.8831 18.469 15.9537C18.4852 16.0242 18.5209 16.0888 18.5721 16.1401L19.1748 16.7438C19.2204 16.7894 19.2766 16.8229 19.3384 16.8412C19.4002 16.8596 19.4657 16.8621 19.5287 16.8487C19.5918 16.8353 19.6505 16.8064 19.6995 16.7645C19.7486 16.7226 19.7863 16.6691 19.8094 16.6089C20.2381 15.5045 20.4798 14.3204 20.4798 12.8095Z" fill="#707174"/>
<path d="M23.5741 12.8098C23.5741 9.22072 22.5982 6.95563 21.1326 4.65961C21.0222 4.48654 20.8476 4.36441 20.6472 4.32008C20.4467 4.27576 20.2369 4.31286 20.0638 4.42324C19.8908 4.53362 19.7686 4.70823 19.7243 4.90866C19.68 5.10908 19.7171 5.31891 19.8275 5.49198C21.1485 7.55937 22.0273 9.59533 22.0273 12.8098C22.0273 15.0425 21.6198 16.6898 20.9431 18.1525C20.91 18.2242 20.8996 18.3043 20.9133 18.3821C20.927 18.4598 20.9643 18.5315 21.02 18.5875L21.5961 19.1637C21.6397 19.208 21.6933 19.2411 21.7524 19.2603C21.8115 19.2795 21.8743 19.2841 21.9356 19.2739C21.9968 19.2637 22.0547 19.2388 22.1043 19.2014C22.154 19.1641 22.1939 19.1153 22.2207 19.0593C23.1681 17.107 23.5741 15.1783 23.5741 12.8098Z" fill="#707174"/>
</svg>
