<svg width="24" height="24" viewBox="0 0 24 24" fill="none" xmlns="http://www.w3.org/2000/svg">
<path d="M10.8764 19.5026C10.6367 19.5026 10.4034 19.4257 10.2107 19.2832C10.2 19.2757 10.1897 19.2678 10.1798 19.2593L5.89566 15.752H2.62517C2.32676 15.752 2.04057 15.6335 1.82955 15.4225C1.61854 15.2115 1.5 14.9253 1.5 14.6269V9.37607C1.5 9.07765 1.61854 8.79146 1.82955 8.58045C2.04057 8.36944 2.32676 8.2509 2.62517 8.2509H5.8952L10.1788 4.74365C10.1887 4.73517 10.199 4.72719 10.2098 4.71974C10.3773 4.5965 10.5758 4.52211 10.7831 4.50486C10.9904 4.4876 11.1984 4.52814 11.384 4.62198C11.5697 4.71582 11.7257 4.85928 11.8347 5.03644C11.9437 5.21359 12.0015 5.41749 12.0016 5.6255V18.3774C12.0016 18.6758 11.883 18.962 11.672 19.173C11.461 19.384 11.1748 19.5026 10.8764 19.5026Z" fill="#311C7E"/>
<path d="M15.0018 15.7519C14.8738 15.7519 14.748 15.7191 14.6362 15.6567C14.5245 15.5943 14.4306 15.5043 14.3635 15.3953C14.2963 15.2864 14.2582 15.162 14.2526 15.0342C14.2471 14.9063 14.2744 14.7792 14.3319 14.6648C14.7768 13.7802 15.0023 12.8835 15.0023 12.0017C15.0023 11.0932 14.7838 10.2232 14.3343 9.34236C14.2482 9.16568 14.2348 8.96224 14.2972 8.77583C14.3595 8.58942 14.4925 8.43492 14.6676 8.3456C14.8427 8.25627 15.0459 8.23925 15.2334 8.29819C15.4209 8.35713 15.5778 8.48733 15.6703 8.66077C16.2295 9.75723 16.5019 10.8504 16.5019 12.0017C16.5019 13.1202 16.2206 14.2429 15.6722 15.3389C15.6097 15.4631 15.5139 15.5675 15.3956 15.6404C15.2772 15.7134 15.1409 15.752 15.0018 15.7519Z" fill="#311C7E"/>
<path d="M17.2522 18.0031C17.1205 18.0031 16.9912 17.9685 16.8771 17.9026C16.7631 17.8368 16.6683 17.7421 16.6025 17.6281C16.5366 17.5141 16.502 17.3847 16.502 17.253C16.5019 17.1213 16.5366 16.9919 16.6025 16.8779C17.489 15.335 18.0023 14.042 18.0023 12.0022C18.0023 9.93139 17.4899 8.64729 16.6043 7.12925C16.5072 6.95759 16.4816 6.75457 16.5331 6.56417C16.5845 6.37376 16.7089 6.21128 16.8793 6.11191C17.0497 6.01255 17.2523 5.98428 17.4434 6.03325C17.6345 6.08221 17.7986 6.20445 17.9001 6.37352C18.8894 8.06924 19.5026 9.60228 19.5026 12.0022C19.5026 14.3664 18.8903 15.907 17.9025 17.628C17.8366 17.7421 17.7418 17.8369 17.6277 17.9027C17.5135 17.9686 17.384 18.0032 17.2522 18.0031Z" fill="#311C7E"/>
<path d="M19.5031 20.253C19.3681 20.2529 19.2355 20.2164 19.1195 20.1472C19.0035 20.078 18.9083 19.9788 18.844 19.86C18.7797 19.7412 18.7487 19.6072 18.7542 19.4723C18.7597 19.3373 18.8016 19.2063 18.8754 19.0932C20.1524 17.134 21.0034 15.1785 21.0034 12.0018C21.0034 8.88414 20.151 6.90947 18.8707 4.90433C18.8177 4.82121 18.7816 4.72847 18.7644 4.6314C18.7472 4.53432 18.7494 4.43482 18.7706 4.33857C18.7919 4.24231 18.832 4.15119 18.8885 4.07041C18.945 3.98963 19.0168 3.92077 19.0999 3.86776C19.1831 3.81476 19.2758 3.77864 19.3729 3.76147C19.47 3.7443 19.5695 3.74642 19.6657 3.76771C19.762 3.789 19.8531 3.82904 19.9339 3.88554C20.0146 3.94204 20.0835 4.0139 20.1365 4.09702C21.557 6.32391 22.5036 8.52034 22.5036 12.0018C22.5036 15.0374 21.8163 17.329 20.1314 19.9127C20.0632 20.0172 19.9701 20.103 19.8604 20.1625C19.7507 20.2219 19.6279 20.253 19.5031 20.253Z" fill="#311C7E"/>
</svg>
