<svg width="33" height="33" viewBox="0 0 33 33" fill="none" xmlns="http://www.w3.org/2000/svg">
<g clip-path="url(#clip0_748_16741)">
<path d="M7.14488 10.7205C6.40862 10.7205 5.81177 11.3173 5.81177 12.0536C5.81177 12.7898 6.40862 13.3867 7.14488 13.3867H25.8085C26.5448 13.3867 27.1416 12.7898 27.1416 12.0536C27.1416 11.3173 26.5448 10.7205 25.8085 10.7205H7.14488Z" fill="#311C7E"/>
<path d="M7.14488 18.7192C6.40862 18.7192 5.81177 19.316 5.81177 20.0523C5.81177 20.7885 6.40862 21.3854 7.14488 21.3854H25.8085C26.5448 21.3854 27.1416 20.7885 27.1416 20.0523C27.1416 19.316 26.5448 18.7192 25.8085 18.7192H7.14488Z" fill="#311C7E"/>
</g>
<defs>
<clipPath id="clip0_748_16741">
<rect x="0.500488" y="0.0644531" width="31.9996" height="31.9996" rx="15.9998" fill="white"/>
</clipPath>
</defs>
</svg>
