<svg width="181" height="49" viewBox="0 0 181 49" fill="none" xmlns="http://www.w3.org/2000/svg">
<rect x="-0.00732422" y="0.0625" width="181.004" height="48" rx="24" fill="#311C7E"/>
<g clip-path="url(#clip0_1025_30408)">
<path d="M33.5295 22.639L25.6124 14.7219L35.7091 20.4591L33.5295 22.639ZM23.4771 32.6929V15.415L32.1154 24.0534L23.4771 32.6929ZM35.7101 27.648L25.612 33.3862L33.5296 25.4676L35.7101 27.648ZM40.7262 24.7988L37.5142 26.6237L34.9437 24.0532L37.5126 21.4839L40.7264 23.3101C41.2057 23.5826 41.3289 23.871 41.3289 24.0541C41.3289 24.2373 41.2057 24.5258 40.7265 24.7986L40.7262 24.7988Z" fill="white" stroke="white"/>
</g>
<path d="M62.2664 21.2785C61.9784 20.7505 61.5824 20.3485 61.0784 20.0725C60.5744 19.7965 59.9864 19.6585 59.3144 19.6585C58.5704 19.6585 57.9104 19.8265 57.3344 20.1625C56.7584 20.4985 56.3084 20.9785 55.9844 21.6025C55.6604 22.2265 55.4984 22.9465 55.4984 23.7625C55.4984 24.6025 55.6604 25.3345 55.9844 25.9585C56.3204 26.5825 56.7824 27.0625 57.3704 27.3985C57.9584 27.7345 58.6424 27.9025 59.4224 27.9025C60.3824 27.9025 61.1684 27.6505 61.7804 27.1465C62.3924 26.6305 62.7944 25.9165 62.9864 25.0045H58.6664V23.0785H65.4704V25.2745C65.3024 26.1505 64.9424 26.9605 64.3904 27.7045C63.8384 28.4485 63.1244 29.0485 62.2484 29.5045C61.3844 29.9485 60.4124 30.1705 59.3324 30.1705C58.1204 30.1705 57.0224 29.9005 56.0384 29.3605C55.0664 28.8085 54.2984 28.0465 53.7344 27.0745C53.1824 26.1025 52.9064 24.9985 52.9064 23.7625C52.9064 22.5265 53.1824 21.4225 53.7344 20.4505C54.2984 19.4665 55.0664 18.7045 56.0384 18.1645C57.0224 17.6125 58.1144 17.3365 59.3144 17.3365C60.7304 17.3365 61.9604 17.6845 63.0044 18.3805C64.0484 19.0645 64.7684 20.0305 65.1644 21.2785H62.2664ZM71.7628 30.2245C70.8028 30.2245 69.9388 30.0145 69.1708 29.5945C68.4028 29.1625 67.7968 28.5565 67.3528 27.7765C66.9208 26.9965 66.7048 26.0965 66.7048 25.0765C66.7048 24.0565 66.9268 23.1565 67.3708 22.3765C67.8268 21.5965 68.4448 20.9965 69.2248 20.5765C70.0048 20.1445 70.8748 19.9285 71.8348 19.9285C72.7948 19.9285 73.6648 20.1445 74.4448 20.5765C75.2248 20.9965 75.8368 21.5965 76.2808 22.3765C76.7368 23.1565 76.9648 24.0565 76.9648 25.0765C76.9648 26.0965 76.7308 26.9965 76.2628 27.7765C75.8068 28.5565 75.1828 29.1625 74.3908 29.5945C73.6108 30.0145 72.7348 30.2245 71.7628 30.2245ZM71.7628 28.0285C72.2188 28.0285 72.6448 27.9205 73.0408 27.7045C73.4488 27.4765 73.7728 27.1405 74.0128 26.6965C74.2528 26.2525 74.3728 25.7125 74.3728 25.0765C74.3728 24.1285 74.1208 23.4025 73.6168 22.8985C73.1248 22.3825 72.5188 22.1245 71.7988 22.1245C71.0788 22.1245 70.4728 22.3825 69.9808 22.8985C69.5008 23.4025 69.2608 24.1285 69.2608 25.0765C69.2608 26.0245 69.4948 26.7565 69.9628 27.2725C70.4428 27.7765 71.0428 28.0285 71.7628 28.0285ZM83.2413 30.2245C82.2813 30.2245 81.4173 30.0145 80.6493 29.5945C79.8813 29.1625 79.2753 28.5565 78.8313 27.7765C78.3993 26.9965 78.1833 26.0965 78.1833 25.0765C78.1833 24.0565 78.4053 23.1565 78.8493 22.3765C79.3053 21.5965 79.9233 20.9965 80.7033 20.5765C81.4833 20.1445 82.3533 19.9285 83.3133 19.9285C84.2733 19.9285 85.1433 20.1445 85.9233 20.5765C86.7033 20.9965 87.3153 21.5965 87.7593 22.3765C88.2153 23.1565 88.4433 24.0565 88.4433 25.0765C88.4433 26.0965 88.2093 26.9965 87.7413 27.7765C87.2853 28.5565 86.6613 29.1625 85.8693 29.5945C85.0893 30.0145 84.2133 30.2245 83.2413 30.2245ZM83.2413 28.0285C83.6973 28.0285 84.1233 27.9205 84.5193 27.7045C84.9273 27.4765 85.2513 27.1405 85.4913 26.6965C85.7313 26.2525 85.8513 25.7125 85.8513 25.0765C85.8513 24.1285 85.5993 23.4025 85.0953 22.8985C84.6033 22.3825 83.9973 22.1245 83.2773 22.1245C82.5573 22.1245 81.9513 22.3825 81.4593 22.8985C80.9793 23.4025 80.7393 24.1285 80.7393 25.0765C80.7393 26.0245 80.9733 26.7565 81.4413 27.2725C81.9213 27.7765 82.5213 28.0285 83.2413 28.0285ZM94.1978 19.9285C94.9418 19.9285 95.5958 20.0785 96.1598 20.3785C96.7238 20.6665 97.1678 21.0445 97.4918 21.5125V20.0905H100.03V30.1345C100.03 31.0585 99.8438 31.8805 99.4718 32.6005C99.0998 33.3325 98.5418 33.9085 97.7978 34.3285C97.0538 34.7605 96.1538 34.9765 95.0978 34.9765C93.6818 34.9765 92.5178 34.6465 91.6058 33.9865C90.7058 33.3265 90.1958 32.4265 90.0758 31.2865H92.5778C92.7098 31.7425 92.9918 32.1025 93.4238 32.3665C93.8678 32.6425 94.4018 32.7805 95.0258 32.7805C95.7578 32.7805 96.3518 32.5585 96.8078 32.1145C97.2638 31.6825 97.4918 31.0225 97.4918 30.1345V28.5865C97.1678 29.0545 96.7178 29.4445 96.1418 29.7565C95.5778 30.0685 94.9298 30.2245 94.1978 30.2245C93.3578 30.2245 92.5898 30.0085 91.8938 29.5765C91.1978 29.1445 90.6458 28.5385 90.2378 27.7585C89.8418 26.9665 89.6438 26.0605 89.6438 25.0405C89.6438 24.0325 89.8418 23.1385 90.2378 22.3585C90.6458 21.5785 91.1918 20.9785 91.8758 20.5585C92.5718 20.1385 93.3458 19.9285 94.1978 19.9285ZM97.4918 25.0765C97.4918 24.4645 97.3718 23.9425 97.1318 23.5105C96.8918 23.0665 96.5678 22.7305 96.1598 22.5025C95.7518 22.2625 95.3138 22.1425 94.8458 22.1425C94.3778 22.1425 93.9458 22.2565 93.5498 22.4845C93.1538 22.7125 92.8298 23.0485 92.5778 23.4925C92.3378 23.9245 92.2178 24.4405 92.2178 25.0405C92.2178 25.6405 92.3378 26.1685 92.5778 26.6245C92.8298 27.0685 93.1538 27.4105 93.5498 27.6505C93.9578 27.8905 94.3898 28.0105 94.8458 28.0105C95.3138 28.0105 95.7518 27.8965 96.1598 27.6685C96.5678 27.4285 96.8918 27.0925 97.1318 26.6605C97.3718 26.2165 97.4918 25.6885 97.4918 25.0765ZM105.011 16.7425V30.0625H102.491V16.7425H105.011ZM116.771 24.8605C116.771 25.2205 116.747 25.5445 116.699 25.8325H109.409C109.469 26.5525 109.721 27.1165 110.165 27.5245C110.609 27.9325 111.155 28.1365 111.803 28.1365C112.739 28.1365 113.405 27.7345 113.801 26.9305H116.519C116.231 27.8905 115.679 28.6825 114.863 29.3065C114.047 29.9185 113.045 30.2245 111.857 30.2245C110.897 30.2245 110.033 30.0145 109.265 29.5945C108.509 29.1625 107.915 28.5565 107.483 27.7765C107.063 26.9965 106.853 26.0965 106.853 25.0765C106.853 24.0445 107.063 23.1385 107.483 22.3585C107.903 21.5785 108.491 20.9785 109.247 20.5585C110.003 20.1385 110.873 19.9285 111.857 19.9285C112.805 19.9285 113.651 20.1325 114.395 20.5405C115.151 20.9485 115.733 21.5305 116.141 22.2865C116.561 23.0305 116.771 23.8885 116.771 24.8605ZM114.161 24.1405C114.149 23.4925 113.915 22.9765 113.459 22.5925C113.003 22.1965 112.445 21.9985 111.785 21.9985C111.161 21.9985 110.633 22.1905 110.201 22.5745C109.781 22.9465 109.523 23.4685 109.427 24.1405H114.161ZM132.061 21.3865C132.061 22.0585 131.899 22.6885 131.575 23.2765C131.263 23.8645 130.765 24.3385 130.081 24.6985C129.409 25.0585 128.557 25.2385 127.525 25.2385H125.419V30.0625H122.899V17.4985H127.525C128.497 17.4985 129.325 17.6665 130.009 18.0025C130.693 18.3385 131.203 18.8005 131.539 19.3885C131.887 19.9765 132.061 20.6425 132.061 21.3865ZM127.417 23.2045C128.113 23.2045 128.629 23.0485 128.965 22.7365C129.301 22.4125 129.469 21.9625 129.469 21.3865C129.469 20.1625 128.785 19.5505 127.417 19.5505H125.419V23.2045H127.417ZM136.37 16.7425V30.0625H133.85V16.7425H136.37ZM138.212 25.0405C138.212 24.0325 138.41 23.1385 138.806 22.3585C139.214 21.5785 139.76 20.9785 140.444 20.5585C141.14 20.1385 141.914 19.9285 142.766 19.9285C143.51 19.9285 144.158 20.0785 144.71 20.3785C145.274 20.6785 145.724 21.0565 146.06 21.5125V20.0905H148.598V30.0625H146.06V28.6045C145.736 29.0725 145.286 29.4625 144.71 29.7745C144.146 30.0745 143.492 30.2245 142.748 30.2245C141.908 30.2245 141.14 30.0085 140.444 29.5765C139.76 29.1445 139.214 28.5385 138.806 27.7585C138.41 26.9665 138.212 26.0605 138.212 25.0405ZM146.06 25.0765C146.06 24.4645 145.94 23.9425 145.7 23.5105C145.46 23.0665 145.136 22.7305 144.728 22.5025C144.32 22.2625 143.882 22.1425 143.414 22.1425C142.946 22.1425 142.514 22.2565 142.118 22.4845C141.722 22.7125 141.398 23.0485 141.146 23.4925C140.906 23.9245 140.786 24.4405 140.786 25.0405C140.786 25.6405 140.906 26.1685 141.146 26.6245C141.398 27.0685 141.722 27.4105 142.118 27.6505C142.526 27.8905 142.958 28.0105 143.414 28.0105C143.882 28.0105 144.32 27.8965 144.728 27.6685C145.136 27.4285 145.46 27.0925 145.7 26.6605C145.94 26.2165 146.06 25.6885 146.06 25.0765ZM160.599 20.0905L154.425 34.7785H151.743L153.903 29.8105L149.907 20.0905H152.733L155.307 27.0565L157.917 20.0905H160.599Z" fill="white"/>
<defs>
<clipPath id="clip0_1025_30408">
<rect x="19.9927" y="12.0607" width="24.0036" height="24.0036" rx="12.0018" fill="white"/>
</clipPath>
</defs>
</svg>
