<svg width="36" height="37" viewBox="0 0 36 37" fill="none" xmlns="http://www.w3.org/2000/svg">
<circle cx="18" cy="18.0625" r="18" fill="#8A77FF"/>
<path d="M17.7082 20.7052C17.2238 21.7658 16.4001 22.6167 15.3582 23.1613C15.6298 24.1401 15.8277 24.8522 15.9026 25.1213C16.6301 27.7351 15.7041 29.646 13.4247 30.2334C13.1602 30.3014 12.8952 30.3346 12.6342 30.3346C11.694 30.3346 10.8042 29.9054 10.1968 29.1265C9.79203 28.6077 9.62086 27.9682 9.71655 27.3254C9.81165 26.6831 10.1617 26.1145 10.7014 25.7253C11.1317 25.415 11.6625 25.2842 12.1938 25.3567C12.7264 25.4299 13.1971 25.6979 13.5192 26.1116C13.8396 26.5225 13.7528 27.1053 13.3249 27.4134C12.8975 27.7214 12.2913 27.6385 11.9709 27.2265C11.9662 27.2208 11.9519 27.2031 11.9204 27.1985C11.8889 27.1933 11.8687 27.2082 11.8622 27.2128C11.7362 27.3036 11.6541 27.4368 11.6316 27.5871C11.609 27.7374 11.6494 27.8871 11.7445 28.0088C12.05 28.4008 12.4684 28.5528 12.9243 28.4357C13.4087 28.3105 14.6954 27.9797 14.0333 25.6019C13.9614 25.3453 13.7766 24.679 13.5228 23.7647C13.1745 23.8224 12.8232 23.855 12.4726 23.855C11.6209 23.855 10.7709 23.6853 9.96796 23.3458C8.44285 22.7018 7.27019 21.5264 6.66633 20.0343C5.40273 16.9154 6.53676 13.7576 9.943 10.8736L8.96647 7.36664C8.48089 5.62375 9.48594 3.90028 11.2547 3.44427C11.5388 3.37113 11.8313 3.33398 12.1237 3.33398C13.6351 3.33398 14.9647 4.31572 15.3558 5.72146C16.0702 8.28838 13.8865 10.0713 12.4417 11.2513C12.3323 11.3404 12.2265 11.4273 12.1243 11.5119C12.3115 12.1845 12.5439 13.0205 12.8012 13.9479C13.6524 13.8296 14.5231 13.9371 15.3302 14.2776C16.4684 14.7582 17.3439 15.6365 17.7956 16.7508C18.3168 18.0366 18.2859 19.4412 17.7088 20.7052H17.7082ZM10.8357 6.88606L11.5691 9.51926C12.8993 8.40381 13.8241 7.41407 13.4871 6.20262C13.3219 5.60889 12.7608 5.1946 12.1237 5.1946C12.0007 5.1946 11.877 5.2106 11.7564 5.24145C11.0229 5.43003 10.6277 6.13747 10.8363 6.88606H10.8357ZM13.0212 21.955C12.9326 21.6361 12.8411 21.3069 12.7466 20.9664C12.365 19.5932 11.9436 18.0726 11.5406 16.6211C11.4461 16.7434 11.3635 16.8754 11.2987 17.0183C11.0711 17.5166 11.0592 18.0703 11.2648 18.5772C11.4592 19.056 11.2131 19.5949 10.7151 19.7818C10.2182 19.9686 9.65652 19.7315 9.46217 19.2532C9.0687 18.2829 9.09188 17.2234 9.52754 16.2703C9.84196 15.5822 10.346 15.0114 10.9807 14.6034C10.8125 13.9988 10.6544 13.4296 10.5118 12.9159C8.806 14.5777 7.44374 16.828 8.46959 19.36C8.88624 20.3886 9.69456 21.1995 10.746 21.6435C11.4723 21.9504 12.2538 22.051 13.0212 21.955ZM15.9917 17.4269C15.7278 16.7754 15.2161 16.2623 14.5516 15.9817C14.1534 15.8137 13.7278 15.7428 13.3059 15.7657C13.7397 17.3286 14.2021 18.9943 14.6164 20.4875C14.6919 20.7589 14.7656 21.0241 14.8369 21.2824C15.3124 20.9441 15.6922 20.4932 15.9365 19.9583C16.3061 19.1492 16.3258 18.2503 15.9923 17.4274L15.9917 17.4269Z" fill="white"/>
<path d="M28.6142 14.8667C27.4719 14.1467 25.9857 14.593 25.3822 15.8338L20.8784 25.0865C21.4163 25.1699 21.9364 25.3611 22.4068 25.6574C22.8895 25.9614 23.2896 26.3538 23.6035 26.8021L29.3058 18.3105C30.0752 17.1698 29.7575 15.5866 28.6142 14.8667Z" fill="#D3CCFF"/>
<path d="M21.642 26.9856C20.3909 26.1969 18.765 26.6197 18.0116 27.9292C17.2038 29.3338 18.1906 31.1053 16.7493 32.9699C16.4879 33.3083 16.7146 33.8037 17.1298 33.787C20.0348 33.6732 21.7591 32.148 22.5435 30.7845C23.2969 29.475 22.893 27.7732 21.642 26.9846V26.9856Z" fill="#D3CCFF"/>
</svg>
