<svg width="36" height="37" viewBox="0 0 36 37" fill="none" xmlns="http://www.w3.org/2000/svg">
<circle cx="18" cy="18.0625" r="18" fill="#F3543A"/>
<path d="M3.72363 18.3373C3.72363 22.1951 6.88106 25.334 10.7764 25.334C13.3693 25.334 15.6324 23.9412 16.8545 21.8756C16.3505 20.8033 16.0625 19.6032 16.0625 18.3373C16.0625 17.0714 16.3514 15.8656 16.8545 14.7924C15.6324 12.7267 13.3683 11.334 10.7764 11.334C6.88106 11.334 3.72363 14.4729 3.72363 18.3373ZM8.23004 20.4104C8.85528 19.7441 9.78839 19.3579 10.7755 19.3579C11.7626 19.3579 12.6967 19.7441 13.321 20.4104C13.6033 20.7102 13.59 21.1764 13.2878 21.4498C12.9856 21.7299 12.5148 21.7102 12.2401 21.417C11.8971 21.0504 11.3467 20.8305 10.7755 20.8305C10.2043 20.8305 9.6605 21.0504 9.31757 21.417C9.16979 21.5701 8.96801 21.65 8.77381 21.65C8.59287 21.65 8.41098 21.5833 8.2632 21.4498C7.96764 21.1773 7.94774 20.7102 8.23004 20.4104Z" fill="#FFC5BB"/>
<path d="M17.6176 18.3336C17.6176 22.1971 20.775 25.3303 24.6704 25.3303C28.5658 25.3303 31.7232 22.198 31.7232 18.3336C31.7232 14.4692 28.5658 11.3369 24.6704 11.3369C20.775 11.3369 17.6176 14.4692 17.6176 18.3336ZM22.16 19.919C22.4603 19.6418 22.9301 19.6587 23.2096 19.9557C23.5525 20.3203 24.0991 20.5384 24.6704 20.5384C25.2416 20.5384 25.7892 20.3203 26.1321 19.9557C26.278 19.8006 26.4769 19.7207 26.6749 19.7207C26.8558 19.7207 27.0377 19.7865 27.1808 19.9181C27.4811 20.1953 27.4972 20.6615 27.2177 20.9594C26.5896 21.6276 25.6613 22.011 24.6704 22.011C23.6795 22.011 22.7511 21.6276 22.123 20.9594C21.8436 20.6624 21.8606 20.1963 22.16 19.919Z" fill="white"/>
<path d="M25.9543 18.2438C25.9543 17.4901 26.5764 16.8791 27.3437 16.8791C28.1111 16.8791 28.7332 17.4901 28.7332 18.2438" stroke="#F3543A" stroke-width="1.493" stroke-linecap="round"/>
<path d="M20.3967 18.2438C20.3967 17.4901 21.0187 16.8791 21.7861 16.8791C22.5535 16.8791 23.1755 17.4901 23.1755 18.2438" stroke="#F3543A" stroke-width="1.493" stroke-linecap="round"/>
<path d="M9.28473 16.8799C9.28473 17.6336 8.66266 18.2446 7.8953 18.2446C7.12793 18.2446 6.50586 17.6336 6.50586 16.8799" stroke="#F3543A" stroke-width="1.493" stroke-linecap="round"/>
<path d="M14.8428 16.8799C14.8428 17.6336 14.2208 18.2446 13.4534 18.2446C12.686 18.2446 12.064 17.6336 12.064 16.8799" stroke="#F3543A" stroke-width="1.493" stroke-linecap="round"/>
</svg>
