<svg width="36" height="37" viewBox="0 0 36 37" fill="none" xmlns="http://www.w3.org/2000/svg">
<circle cx="18" cy="18.0625" r="18" fill="#4BBF85"/>
<g clip-path="url(#clip0_948_14167)">
<path d="M21.7478 21.8411C21.7078 21.7086 21.6811 21.5762 21.6811 21.4437V17.5324C21.6811 17.241 21.7877 16.9629 21.9743 16.7496L26.3775 11.6714C26.8972 11.0622 26.8306 10.1469 26.2176 9.62905C25.6045 9.11248 24.6837 9.17871 24.1626 9.77474L20.7602 13.7125C20.3604 14.1761 19.7594 14.4556 19.1464 14.4556H16.3051C15.6774 14.4556 15.091 14.1907 14.6912 13.7125L11.2889 9.77474C10.7692 9.16546 9.84827 9.09791 9.2339 9.62905C8.62087 10.1456 8.55291 11.0608 9.08731 11.6714L13.4905 16.7496C13.6771 16.9748 13.7837 17.253 13.7837 17.5324V21.6556C13.7837 21.7219 13.7837 21.8013 13.7703 21.8676L13.4638 23.3921C13.4372 23.551 13.2506 23.6437 13.104 23.5643L11.0757 22.4768C10.3014 22.0662 9.30187 22.4239 9.00735 23.2861C8.76747 23.963 9.12729 24.7179 9.76831 25.0623L13.797 27.2239C14.2101 27.4491 14.7046 27.4623 15.1177 27.2504C15.5441 27.0517 15.8387 26.6544 15.9186 26.2027L16.4384 23.3524C16.4917 23.0742 16.7316 22.8755 17.0114 22.8755H18.6253C18.8785 22.8755 19.0917 23.0345 19.1717 23.2596L19.7981 25.0093C19.8647 25.1948 19.7981 25.4067 19.6381 25.5259L17.1167 27.4226C16.5436 27.8464 16.3024 28.6425 16.6369 29.2663C16.9035 29.7829 17.4246 30.0623 17.9443 30.0623C18.2508 30.0623 18.5587 29.9696 18.8252 29.771L22.5207 27.0001C23.0271 26.616 23.2284 25.9524 23.0138 25.3563L21.7464 21.8424L21.7478 21.8411Z" fill="white"/>
<path d="M25.9626 16.6947H26.6564L25.0852 15.5777C24.0735 14.8585 22.7205 15.0731 21.8757 15.8599L21.8581 15.8425C20.7926 14.7904 18.9993 14.8931 18.0785 16.1542L18.0783 16.1545C17.3273 17.1843 17.5763 18.5696 18.4178 19.4004L21.1632 22.1112C21.5565 22.4995 22.1898 22.4995 22.5831 22.1112L25.3996 19.3303C26.1208 18.6182 26.3078 17.5768 25.9626 16.6947Z" fill="#CBF3DF" stroke="#4BBF85" stroke-width="1.23081"/>
<path d="M17.7188 13.1169C19.6806 13.1169 21.2678 11.5394 21.2678 9.58968C21.2678 7.64 19.6806 6.0625 17.7188 6.0625C15.7571 6.0625 14.1699 7.64 14.1699 9.58968C14.1699 11.5394 15.7571 13.1169 17.7188 13.1169Z" fill="white"/>
</g>
<defs>
<clipPath id="clip0_948_14167">
<rect width="24" height="24" fill="white" transform="translate(6 6.0625)"/>
</clipPath>
</defs>
</svg>
