<svg width="36" height="37" viewBox="0 0 36 37" fill="none" xmlns="http://www.w3.org/2000/svg">
<circle cx="18" cy="18.0625" r="18" fill="#6C8AF0"/>
<path d="M31.3966 16.6859C31.3754 16.6807 31.3649 16.6705 31.3597 16.6651L26.1533 12.8874V9.48587C26.1533 9.02706 25.7743 8.65602 25.3057 8.65602C25.1444 8.65602 24.9936 8.70003 24.8652 8.77654C24.6109 8.91959 24.44 9.18802 24.44 9.49611V11.6423L18.7304 7.49632C18.4484 7.29289 18.0686 7.28061 17.7748 7.45973C17.7497 7.47406 17.7252 7.48942 17.7014 7.50656L8.02829 14.5333L5.08491 16.6702C4.86431 16.8212 4.74094 17.0572 4.72761 17.302C4.72761 17.3046 4.72761 17.3072 4.72735 17.3097C4.72682 17.3189 4.72656 17.3281 4.72656 17.3374C4.72656 17.344 4.72656 17.3509 4.72656 17.3576C4.72656 17.3627 4.72656 17.3678 4.72682 17.3729C4.72709 17.3837 4.72761 17.3942 4.72839 17.4049C4.72839 17.4062 4.72839 17.4075 4.72865 17.409C4.73754 17.5285 4.77283 17.647 4.83634 17.7557C4.83713 17.7573 4.83791 17.7585 4.83896 17.7601C4.84366 17.7683 4.84889 17.7762 4.85385 17.7841C4.85777 17.7903 4.86143 17.7962 4.86562 17.8023C4.86745 17.8051 4.86954 17.8079 4.87137 17.8108C4.87581 17.8174 4.88025 17.8241 4.88496 17.8305C5.15339 18.2066 5.68504 18.2944 6.06952 18.0262C6.07998 18.0211 6.0907 18.0109 6.10115 18.0055L8.74682 16.0848V22.0462C8.75466 22.0486 8.7625 22.0514 8.77035 22.0537V27.7516C8.77035 28.0712 9.03878 28.334 9.36524 28.334H27.0958C27.4223 28.334 27.6907 28.0712 27.6907 27.7516V16.0899L30.3364 18.0055C30.5094 18.136 30.7193 18.1907 30.9229 18.1744C31.1616 18.1621 31.3937 18.0515 31.5495 17.8507C31.8338 17.4847 31.7706 16.9643 31.3968 16.6859H31.3966ZM18.2014 13.7482C19.5807 13.7482 20.702 14.8409 20.702 16.1963C20.702 17.5518 19.5859 18.6444 18.2014 18.6444C16.8169 18.6444 15.7008 17.5518 15.7008 16.1963C15.706 14.846 16.8221 13.7482 18.2014 13.7482ZM21.9707 23.0253C21.9707 23.4426 21.6286 23.783 21.202 23.783H15.2112C14.7849 23.783 14.4425 23.4429 14.4425 23.0304V21.6903C14.4425 20.6133 14.9585 19.603 15.843 18.9638C17.2118 20.0874 19.2017 20.0874 20.5705 18.9638C21.455 19.6028 21.9762 20.613 21.971 21.6903V23.0253H21.9707Z" fill="white"/>
</svg>
