<svg width="36" height="37" viewBox="0 0 36 37" fill="none" xmlns="http://www.w3.org/2000/svg">
<circle cx="18" cy="18.0625" r="18" fill="#FFC700"/>
<path d="M28.5468 18.8499L26.0954 15.3097C25.9706 15.0994 25.9007 14.863 25.8782 14.622C25.4489 9.97815 21.3424 6.33398 16.3274 6.33398C11.0252 6.33635 6.72656 10.4059 6.72656 15.4255C6.72656 18.4174 8.2543 21.362 10.6108 23.255C10.8879 23.4772 11.0352 23.8104 11.0352 24.1531V28.8418C11.0352 29.2577 11.3722 29.6075 11.8115 29.6429L20.0419 30.3307C20.5386 30.3732 20.9655 30.0022 20.9655 29.5295V26.3415C20.9655 26.1004 21.1727 25.9042 21.4273 25.9042H24.3205C25.2092 25.9042 25.9307 25.2213 25.9307 24.3799V20.7192C25.9307 20.5562 26.0705 20.4215 26.2452 20.4215H27.6531C28.5069 20.4215 29.0161 19.5258 28.5493 18.8499H28.5468Z" fill="white"/>
<path d="M23.2148 13.7024C23.1268 14.0439 22.8452 14.3105 22.4845 14.3993C22.2733 14.4521 22.068 14.441 21.8862 14.3827C21.7542 14.341 21.6193 14.3077 21.4844 14.2799C21.2879 14.2383 21.1031 14.3799 21.1031 14.5715V16.4262C21.1031 16.7871 20.7952 17.0759 20.4169 17.0759H18.4666C18.2671 17.0759 18.1146 16.9009 18.1586 16.7149C18.185 16.6011 18.2173 16.4872 18.2583 16.379C18.3199 16.2068 18.3317 16.0125 18.2759 15.8126C18.1821 15.471 17.9005 15.2073 17.5398 15.1212C16.8535 14.9629 16.2406 15.4488 16.2406 16.0708C16.2406 16.1763 16.2582 16.279 16.2904 16.3762C16.3286 16.4872 16.3637 16.6011 16.3901 16.7149C16.4371 16.9009 16.2875 17.0786 16.0851 17.0786H14.1348C13.7536 17.0786 13.4486 16.7871 13.4486 16.4289V14.5715C13.4486 14.3799 13.2609 14.2383 13.0644 14.2827C12.9294 14.3132 12.7945 14.3466 12.6596 14.3882C12.5599 14.4188 12.4514 14.4354 12.34 14.4354C11.683 14.4354 11.1668 13.8551 11.3369 13.2054C11.4249 12.8639 11.7065 12.5974 12.0672 12.5085C12.2784 12.4558 12.4837 12.4669 12.6655 12.5252C12.7975 12.5668 12.9324 12.6002 13.0673 12.6279C13.2638 12.6696 13.4486 12.528 13.4486 12.3392V10.4845C13.4486 10.1263 13.7565 9.83476 14.1348 9.83476H16.0969C16.2992 9.83476 16.4488 9.65707 16.4019 9.47104C16.3696 9.34332 16.3344 9.21561 16.2904 9.09066C16.2582 8.99349 16.2406 8.89353 16.2406 8.78525C16.2406 8.16331 16.8535 7.67465 17.5398 7.83569C17.9005 7.91898 18.185 8.18553 18.2759 8.52704C18.3317 8.72972 18.3199 8.9213 18.2583 9.09344C18.2143 9.21838 18.1791 9.3461 18.1498 9.47382C18.1058 9.65707 18.2554 9.83476 18.4578 9.83476H20.4169C20.7952 9.83476 21.1031 10.1263 21.1031 10.4845V12.3419C21.1031 12.5335 21.2908 12.6751 21.4873 12.6307C21.6222 12.6002 21.7572 12.5668 21.8921 12.5252C21.9918 12.4946 22.1003 12.478 22.2117 12.478C22.8687 12.478 23.3849 13.0583 23.2148 13.708V13.7024Z" fill="#FFC700"/>
</svg>
