<svg width="162" height="49" viewBox="0 0 162 49" fill="none" xmlns="http://www.w3.org/2000/svg">
<rect x="-0.00390625" y="0.0625" width="162.004" height="48" rx="24" fill="#311C7E"/>
<g clip-path="url(#clip0_1025_30413)">
<path d="M37.4136 24.7404L37.4136 24.7404L37.4136 24.7473C37.4156 26.6919 38.5207 28.5006 40.22 29.407C39.9007 30.3104 39.4587 31.1662 38.9058 31.9502L38.9056 31.9501L38.8987 31.9605C38.4483 32.6342 38.0196 33.2482 37.5356 33.7002C37.0618 34.1426 36.5683 34.3982 35.9857 34.4076L35.9857 34.4076L35.9823 34.4077C35.383 34.4216 34.9907 34.2545 34.4868 34.04L34.4739 34.0345C33.95 33.8115 33.337 33.5565 32.4029 33.5565C31.4682 33.5565 30.8481 33.7922 30.3127 34.0158C30.2779 34.0303 30.2436 34.0447 30.2099 34.0589C29.7334 34.2589 29.3535 34.4183 28.8038 34.4414C28.2874 34.4601 27.7871 34.2038 27.2678 33.7164C26.748 33.2285 26.2736 32.5703 25.807 31.9032C24.9212 30.6084 24.1255 28.7691 23.7876 26.8535C23.4489 24.9331 23.5802 22.998 24.4676 21.4616L24.4676 21.4617L24.4715 21.4547C25.2853 19.9923 26.8482 19.0386 28.5207 18.9835C29.1196 18.9719 29.7201 19.1748 30.333 19.4169C30.4082 19.4466 30.4848 19.4773 30.5618 19.5083C30.7845 19.5977 31.0114 19.6889 31.2214 19.7609C31.504 19.8579 31.8133 19.9418 32.1161 19.9418C32.4251 19.9418 32.7595 19.8392 33.0611 19.7304C33.2264 19.6707 33.4222 19.5931 33.62 19.5148C33.7716 19.4548 33.9243 19.3943 34.0652 19.3411C34.7781 19.072 35.5109 18.8591 36.2268 18.9343L36.245 18.9362L36.2633 18.9368C37.5119 18.9758 38.7219 19.5545 39.5481 20.486C38.2394 21.4935 37.435 23.0751 37.4136 24.7404Z" fill="white" stroke="white"/>
<path d="M34.7977 16.3367L34.7976 16.3367L34.7922 16.3435C34.2143 17.0622 33.3539 17.5366 32.4425 17.6571C32.4961 16.7412 32.8574 15.8466 33.4644 15.1558L33.4645 15.1556C34.0821 14.4521 34.9022 13.9645 35.8052 13.7547C35.7585 14.6969 35.4077 15.6044 34.7977 16.3367Z" fill="white" stroke="white"/>
</g>
<path d="M61.2531 27.6685H56.2491L55.4211 30.0625H52.7751L57.2931 17.4805H60.2271L64.7451 30.0625H62.0811L61.2531 27.6685ZM60.5691 25.6525L58.7511 20.3965L56.9331 25.6525H60.5691ZM68.9539 21.5305C69.2779 21.0745 69.7219 20.6965 70.2859 20.3965C70.8619 20.0845 71.5159 19.9285 72.2479 19.9285C73.0999 19.9285 73.8679 20.1385 74.5519 20.5585C75.2479 20.9785 75.7939 21.5785 76.1899 22.3585C76.5979 23.1265 76.8019 24.0205 76.8019 25.0405C76.8019 26.0605 76.5979 26.9665 76.1899 27.7585C75.7939 28.5385 75.2479 29.1445 74.5519 29.5765C73.8679 30.0085 73.0999 30.2245 72.2479 30.2245C71.5159 30.2245 70.8679 30.0745 70.3039 29.7745C69.7519 29.4745 69.3019 29.0965 68.9539 28.6405V34.8145H66.4339V20.0905H68.9539V21.5305ZM74.2279 25.0405C74.2279 24.4405 74.1019 23.9245 73.8499 23.4925C73.6099 23.0485 73.2859 22.7125 72.8779 22.4845C72.4819 22.2565 72.0499 22.1425 71.5819 22.1425C71.1259 22.1425 70.6939 22.2625 70.2859 22.5025C69.8899 22.7305 69.5659 23.0665 69.3139 23.5105C69.0739 23.9545 68.9539 24.4765 68.9539 25.0765C68.9539 25.6765 69.0739 26.1985 69.3139 26.6425C69.5659 27.0865 69.8899 27.4285 70.2859 27.6685C70.6939 27.8965 71.1259 28.0105 71.5819 28.0105C72.0499 28.0105 72.4819 27.8905 72.8779 27.6505C73.2859 27.4105 73.6099 27.0685 73.8499 26.6245C74.1019 26.1805 74.2279 25.6525 74.2279 25.0405ZM81.1531 21.5305C81.4771 21.0745 81.9211 20.6965 82.4851 20.3965C83.0611 20.0845 83.7151 19.9285 84.4471 19.9285C85.2991 19.9285 86.0671 20.1385 86.7511 20.5585C87.4471 20.9785 87.9931 21.5785 88.3891 22.3585C88.7971 23.1265 89.0011 24.0205 89.0011 25.0405C89.0011 26.0605 88.7971 26.9665 88.3891 27.7585C87.9931 28.5385 87.4471 29.1445 86.7511 29.5765C86.0671 30.0085 85.2991 30.2245 84.4471 30.2245C83.7151 30.2245 83.0671 30.0745 82.5031 29.7745C81.9511 29.4745 81.5011 29.0965 81.1531 28.6405V34.8145H78.6331V20.0905H81.1531V21.5305ZM86.4271 25.0405C86.4271 24.4405 86.3011 23.9245 86.0491 23.4925C85.8091 23.0485 85.4851 22.7125 85.0771 22.4845C84.6811 22.2565 84.2491 22.1425 83.7811 22.1425C83.3251 22.1425 82.8931 22.2625 82.4851 22.5025C82.0891 22.7305 81.7651 23.0665 81.5131 23.5105C81.2731 23.9545 81.1531 24.4765 81.1531 25.0765C81.1531 25.6765 81.2731 26.1985 81.5131 26.6425C81.7651 27.0865 82.0891 27.4285 82.4851 27.6685C82.8931 27.8965 83.3251 28.0105 83.7811 28.0105C84.2491 28.0105 84.6811 27.8905 85.0771 27.6505C85.4851 27.4105 85.8091 27.0685 86.0491 26.6245C86.3011 26.1805 86.4271 25.6525 86.4271 25.0405ZM99.4594 30.1885C98.5834 30.1885 97.7914 30.0385 97.0834 29.7385C96.3874 29.4385 95.8354 29.0065 95.4274 28.4425C95.0194 27.8785 94.8094 27.2125 94.7974 26.4445H97.4974C97.5334 26.9605 97.7134 27.3685 98.0374 27.6685C98.3734 27.9685 98.8294 28.1185 99.4054 28.1185C99.9934 28.1185 100.455 27.9805 100.791 27.7045C101.127 27.4165 101.295 27.0445 101.295 26.5885C101.295 26.2165 101.181 25.9105 100.953 25.6705C100.725 25.4305 100.437 25.2445 100.089 25.1125C99.7534 24.9685 99.2854 24.8125 98.6854 24.6445C97.8694 24.4045 97.2034 24.1705 96.6874 23.9425C96.1834 23.7025 95.7454 23.3485 95.3734 22.8805C95.0134 22.4005 94.8334 21.7645 94.8334 20.9725C94.8334 20.2285 95.0194 19.5805 95.3914 19.0285C95.7634 18.4765 96.2854 18.0565 96.9574 17.7685C97.6294 17.4685 98.3974 17.3185 99.2614 17.3185C100.557 17.3185 101.607 17.6365 102.411 18.2725C103.227 18.8965 103.677 19.7725 103.761 20.9005H100.989C100.965 20.4685 100.779 20.1145 100.431 19.8385C100.095 19.5505 99.6454 19.4065 99.0814 19.4065C98.5894 19.4065 98.1934 19.5325 97.8934 19.7845C97.6054 20.0365 97.4614 20.4025 97.4614 20.8825C97.4614 21.2185 97.5694 21.5005 97.7854 21.7285C98.0134 21.9445 98.2894 22.1245 98.6134 22.2685C98.9494 22.4005 99.4174 22.5565 100.017 22.7365C100.833 22.9765 101.499 23.2165 102.015 23.4565C102.531 23.6965 102.975 24.0565 103.347 24.5365C103.719 25.0165 103.905 25.6465 103.905 26.4265C103.905 27.0985 103.731 27.7225 103.383 28.2985C103.035 28.8745 102.525 29.3365 101.853 29.6845C101.181 30.0205 100.383 30.1885 99.4594 30.1885ZM109.024 22.1605V26.9845C109.024 27.3205 109.102 27.5665 109.258 27.7225C109.426 27.8665 109.702 27.9385 110.086 27.9385H111.256V30.0625H109.672C107.548 30.0625 106.486 29.0305 106.486 26.9665V22.1605H105.298V20.0905H106.486V17.6245H109.024V20.0905H111.256V22.1605H109.024ZM117.497 30.2245C116.537 30.2245 115.673 30.0145 114.905 29.5945C114.137 29.1625 113.531 28.5565 113.087 27.7765C112.655 26.9965 112.439 26.0965 112.439 25.0765C112.439 24.0565 112.661 23.1565 113.105 22.3765C113.561 21.5965 114.179 20.9965 114.959 20.5765C115.739 20.1445 116.609 19.9285 117.569 19.9285C118.529 19.9285 119.399 20.1445 120.179 20.5765C120.959 20.9965 121.571 21.5965 122.015 22.3765C122.471 23.1565 122.699 24.0565 122.699 25.0765C122.699 26.0965 122.465 26.9965 121.997 27.7765C121.541 28.5565 120.917 29.1625 120.125 29.5945C119.345 30.0145 118.469 30.2245 117.497 30.2245ZM117.497 28.0285C117.953 28.0285 118.379 27.9205 118.775 27.7045C119.183 27.4765 119.507 27.1405 119.747 26.6965C119.987 26.2525 120.107 25.7125 120.107 25.0765C120.107 24.1285 119.855 23.4025 119.351 22.8985C118.859 22.3825 118.253 22.1245 117.533 22.1245C116.813 22.1245 116.207 22.3825 115.715 22.8985C115.235 23.4025 114.995 24.1285 114.995 25.0765C114.995 26.0245 115.229 26.7565 115.697 27.2725C116.177 27.7765 116.777 28.0285 117.497 28.0285ZM127.067 21.6385C127.391 21.1105 127.811 20.6965 128.327 20.3965C128.855 20.0965 129.455 19.9465 130.127 19.9465V22.5925H129.461C128.669 22.5925 128.069 22.7785 127.661 23.1505C127.265 23.5225 127.067 24.1705 127.067 25.0945V30.0625H124.547V20.0905H127.067V21.6385ZM141.095 24.8605C141.095 25.2205 141.071 25.5445 141.023 25.8325H133.733C133.793 26.5525 134.045 27.1165 134.489 27.5245C134.933 27.9325 135.479 28.1365 136.127 28.1365C137.063 28.1365 137.729 27.7345 138.125 26.9305H140.843C140.555 27.8905 140.003 28.6825 139.187 29.3065C138.371 29.9185 137.369 30.2245 136.181 30.2245C135.221 30.2245 134.357 30.0145 133.589 29.5945C132.833 29.1625 132.239 28.5565 131.807 27.7765C131.387 26.9965 131.177 26.0965 131.177 25.0765C131.177 24.0445 131.387 23.1385 131.807 22.3585C132.227 21.5785 132.815 20.9785 133.571 20.5585C134.327 20.1385 135.197 19.9285 136.181 19.9285C137.129 19.9285 137.975 20.1325 138.719 20.5405C139.475 20.9485 140.057 21.5305 140.465 22.2865C140.885 23.0305 141.095 23.8885 141.095 24.8605ZM138.485 24.1405C138.473 23.4925 138.239 22.9765 137.783 22.5925C137.327 22.1965 136.769 21.9985 136.109 21.9985C135.485 21.9985 134.957 22.1905 134.525 22.5745C134.105 22.9465 133.847 23.4685 133.751 24.1405H138.485Z" fill="white"/>
<defs>
<clipPath id="clip0_1025_30413">
<rect x="19.9961" y="12.0607" width="24.0036" height="24.0036" rx="12.0018" fill="white"/>
</clipPath>
</defs>
</svg>
